<svg width="32" height="32" viewBox="0 0 32 32" fill="none" xmlns="http://www.w3.org/2000/svg">
<path d="M1 17C0.447715 17 0 16.5523 0 16V16C0 15.4477 0.447715 15 1 15H16V17H1Z" fill="black"/>
<path d="M1.41418 15L6.36393 19.9497C6.75446 20.3403 6.75446 20.9734 6.36393 21.364V21.364C5.97341 21.7545 5.34024 21.7545 4.94972 21.364L-2.89679e-05 16.4142L1.41418 15Z" fill="black"/>
<path d="M0 15.6569L4.94975 10.7071C5.34027 10.3166 5.97344 10.3166 6.36396 10.7071V10.7071C6.75449 11.0976 6.75449 11.7308 6.36396 12.1213L1.41421 17.0711L0 15.6569Z" fill="black"/>
<path d="M31 15C31.5523 15 32 15.4477 32 16V16C32 16.5523 31.5523 17 31 17L16 17V15L31 15Z" fill="black"/>
<path d="M30.5858 17.071L25.6361 12.1213C25.2455 11.7308 25.2455 11.0976 25.6361 10.7071V10.7071C26.0266 10.3166 26.6598 10.3166 27.0503 10.7071L32 15.6568L30.5858 17.071Z" fill="black"/>
<path d="M32 16.4142L27.0503 21.3639C26.6597 21.7545 26.0266 21.7545 25.636 21.3639V21.3639C25.2455 20.9734 25.2455 20.3402 25.636 19.9497L30.5858 15L32 16.4142Z" fill="black"/>
<path d="M15.0711 1.00073C15.0711 0.448448 15.5188 0.000687361 16.071 0.000631776V0.000631776C16.6233 0.000576191 17.0711 0.448246 17.0711 1.00053L17.0727 16.0005L15.0727 16.0007L15.0711 1.00073Z" fill="black"/>
<path d="M17.0712 1.41473L12.1219 6.36498C11.7314 6.75554 11.0983 6.75561 10.7077 6.36512V6.36512C10.3171 5.97464 10.3171 5.34147 10.7076 4.95091L15.6568 0.000662684L17.0712 1.41473Z" fill="black"/>
<path d="M16.4142 0.000610352L21.3644 4.94986C21.755 5.34034 21.7551 5.97351 21.3646 6.36407V6.36407C20.9741 6.75464 20.3409 6.7547 19.9504 6.36422L15.0001 1.41497L16.4142 0.000610352Z" fill="black"/>
<path d="M17.0741 31.0005C17.0742 31.5528 16.6265 32.0005 16.0742 32.0006V32.0006C15.5219 32.0006 15.0742 31.553 15.0741 31.0007L15.0726 16.0007L17.0726 16.0005L17.0741 31.0005Z" fill="black"/>
<path d="M15.0031 30.5865L19.9523 25.6362C20.3428 25.2457 20.976 25.2456 21.3665 25.6361V25.6361C21.7571 26.0266 21.7571 26.6597 21.3667 27.0503L16.4174 32.0006L15.0031 30.5865Z" fill="black"/>
<path d="M15.66 32.0006L10.7098 27.0514C10.3192 26.6609 10.3192 26.0277 10.7096 25.6371V25.6371C11.1001 25.2466 11.7333 25.2465 12.1239 25.637L17.0741 30.5863L15.66 32.0006Z" fill="black"/>
</svg>
