<svg width="32" height="32" viewBox="0 0 32 32" fill="none" xmlns="http://www.w3.org/2000/svg">
<path d="M1.5 17C0.671573 17 0 16.3284 0 15.5C0 14.6716 0.671573 14 1.5 14H16V17H1.5Z" fill="black"/>
<path d="M2.12134 14L6.71753 18.5962C7.30332 19.182 7.30332 20.1317 6.71753 20.7175C6.13175 21.3033 5.182 21.3033 4.59621 20.7175L1.75834e-05 16.1213L2.12134 14Z" fill="black"/>
<path d="M0 14.6569L4.59619 10.0607C5.18198 9.47488 6.13173 9.47488 6.71751 10.0607C7.3033 10.6465 7.3033 11.5962 6.71751 12.182L2.12132 16.7782L0 14.6569Z" fill="black"/>
<path d="M30.5 14C31.3284 14 32 14.6716 32 15.5C32 16.3284 31.3284 17 30.5 17L16 17V14L30.5 14Z" fill="black"/>
<path d="M29.6569 16.7782L25.0607 12.182C24.4749 11.5962 24.4749 10.6465 25.0607 10.0607C25.6465 9.4749 26.5962 9.4749 27.182 10.0607L31.7782 14.6569L29.6569 16.7782Z" fill="black"/>
<path d="M31.7782 16.1213L27.182 20.7175C26.5962 21.3033 25.6465 21.3033 25.0607 20.7175C24.4749 20.1317 24.4749 19.182 25.0607 18.5962L29.6569 14L31.7782 16.1213Z" fill="black"/>
<path d="M15.0712 1.50073C15.0711 0.672305 15.7426 0.000664831 16.571 0.000581454C17.3995 0.000498076 18.0711 0.672003 18.0712 1.50043L18.0727 16.0004L15.0727 16.0007L15.0712 1.50073Z" fill="black"/>
<path d="M17.7778 2.12109L13.1821 6.71775C12.5964 7.3036 11.6466 7.30369 11.0608 6.71796C10.4749 6.13224 10.4748 5.18249 11.0606 4.59664L15.6563 -1.30534e-05L17.7778 2.12109Z" fill="black"/>
<path d="M17.1211 0L21.7178 4.59573C22.3036 5.18146 22.3037 6.13121 21.718 6.71705C21.1322 7.3029 20.1825 7.30299 19.5966 6.71727L15 2.12153L17.1211 0Z" fill="black"/>
<path d="M18.0014 30.5C18.0015 31.3284 17.33 32.0001 16.5016 32.0002C15.6732 32.0002 15.0015 31.3287 15.0014 30.5003L15 16.0003L18 16L18.0014 30.5Z" fill="black"/>
<path d="M15 29.6574L19.5957 25.0608C20.1815 24.4749 21.1312 24.4748 21.7171 25.0605C22.3029 25.6463 22.303 26.596 21.7173 27.1819L17.1215 31.7785L15 29.6574Z" fill="black"/>
<path d="M15.6573 31.7778L11.0607 27.1821C10.4748 26.5964 10.4748 25.6466 11.0605 25.0608C11.6462 24.4749 12.596 24.4748 13.1818 25.0606L17.7785 29.6563L15.6573 31.7778Z" fill="black"/>
</svg>
