<svg width="32" height="32" viewBox="0 0 32 32" fill="none" xmlns="http://www.w3.org/2000/svg">
<path d="M16 22.5C16.7738 22.5 17.5258 22.7575 18.1367 23.2324C18.7475 23.7072 19.1821 24.3724 19.373 25.1221L19.4697 25.499H30C30.1326 25.499 30.2598 25.5518 30.3535 25.6455C30.4473 25.7393 30.5 25.8664 30.5 25.999C30.5 26.1316 30.4473 26.2588 30.3535 26.3525C30.2597 26.4463 30.1326 26.499 30 26.499H19.4697L19.373 26.876C19.1822 27.6257 18.7475 28.2908 18.1367 28.7656C17.5258 29.2405 16.7738 29.498 16 29.498C15.2262 29.498 14.4742 29.2405 13.8633 28.7656C13.2525 28.2908 12.8178 27.6257 12.627 26.876L12.5303 26.499H2C1.86739 26.499 1.74025 26.4463 1.64648 26.3525C1.55273 26.2588 1.5 26.1316 1.5 25.999C1.50001 25.8664 1.55273 25.7393 1.64648 25.6455C1.74025 25.5518 1.8674 25.499 2 25.499H12.5303L12.627 25.1221C12.8179 24.3724 13.2525 23.7072 13.8633 23.2324C14.4742 22.7575 15.2262 22.5 16 22.5ZM16.957 23.6895C16.5004 23.5003 15.9975 23.4505 15.5127 23.5469C15.0278 23.6433 14.582 23.8818 14.2324 24.2314C13.8828 24.5811 13.6443 25.0268 13.5479 25.5117C13.4515 25.9965 13.5013 26.4994 13.6904 26.9561C13.8797 27.4127 14.2003 27.8035 14.6113 28.0781C15.0224 28.3527 15.5057 28.499 16 28.499C16.663 28.499 17.2987 28.2354 17.7676 27.7666C18.2364 27.2978 18.5 26.6621 18.5 25.999C18.5 25.5047 18.3536 25.0214 18.0791 24.6104C17.8045 24.1993 17.4137 23.8787 16.957 23.6895ZM26 12.5C26.7738 12.5 27.5258 12.7575 28.1367 13.2324C28.7475 13.7072 29.1821 14.3724 29.373 15.1221L29.4697 15.499H30C30.1326 15.499 30.2597 15.5518 30.3535 15.6455C30.4473 15.7393 30.5 15.8664 30.5 15.999C30.5 16.1316 30.4473 16.2588 30.3535 16.3525C30.2597 16.4463 30.1326 16.499 30 16.499H29.4697L29.373 16.876C29.1822 17.6257 28.7475 18.2908 28.1367 18.7656C27.5258 19.2405 26.7738 19.498 26 19.498C25.2262 19.498 24.4742 19.2405 23.8633 18.7656C23.2525 18.2908 22.8178 17.6257 22.627 16.876L22.5303 16.499H2C1.86739 16.499 1.74025 16.4463 1.64648 16.3525C1.55273 16.2588 1.5 16.1316 1.5 15.999C1.50001 15.8664 1.55273 15.7393 1.64648 15.6455C1.74025 15.5518 1.8674 15.499 2 15.499H22.5303L22.627 15.1221C22.8179 14.3724 23.2525 13.7072 23.8633 13.2324C24.4742 12.7575 25.2262 12.5 26 12.5ZM26.957 13.6895C26.5004 13.5003 25.9975 13.4505 25.5127 13.5469C25.0278 13.6433 24.582 13.8818 24.2324 14.2314C23.8828 14.5811 23.6443 15.0268 23.5479 15.5117C23.4515 15.9965 23.5013 16.4994 23.6904 16.9561C23.8797 17.4127 24.2003 17.8035 24.6113 18.0781C25.0224 18.3527 25.5057 18.499 26 18.499C26.663 18.499 27.2987 18.2354 27.7676 17.7666C28.2364 17.2978 28.5 16.6621 28.5 15.999C28.5 15.5047 28.3536 15.0214 28.0791 14.6104C27.8045 14.1993 27.4137 13.8787 26.957 13.6895ZM6 2.5C6.77378 2.5 7.52581 2.75752 8.13672 3.23242C8.74749 3.70723 9.18214 4.37238 9.37305 5.12207L9.46973 5.49902H30C30.1326 5.49902 30.2597 5.55175 30.3535 5.64551C30.4473 5.73927 30.5 5.86643 30.5 5.99902C30.5 6.13162 30.4473 6.25877 30.3535 6.35254C30.2597 6.44631 30.1326 6.49902 30 6.49902H9.46973L9.37305 6.87598C9.18216 7.62568 8.74749 8.2908 8.13672 8.76562C7.52581 9.24052 6.77378 9.49805 6 9.49805C5.22622 9.49805 4.47419 9.24052 3.86328 8.76562C3.25251 8.2908 2.81784 7.62568 2.62695 6.87598L2.53027 6.49902H2C1.86739 6.49902 1.74025 6.44631 1.64648 6.35254C1.55273 6.25877 1.5 6.13162 1.5 5.99902C1.50001 5.86643 1.55273 5.73927 1.64648 5.64551C1.74025 5.55175 1.8674 5.49902 2 5.49902H2.53027L2.62695 5.12207C2.81786 4.37238 3.25251 3.70723 3.86328 3.23242C4.47419 2.75752 5.22622 2.5 6 2.5ZM6 3.49902C5.33697 3.49902 4.70126 3.76262 4.23242 4.23145C3.76359 4.70028 3.50001 5.336 3.5 5.99902C3.5 6.49332 3.64637 6.97666 3.9209 7.3877C4.19553 7.79872 4.5863 8.11936 5.04297 8.30859C5.49965 8.49776 6.00249 8.54752 6.4873 8.45117C6.97226 8.35471 7.41795 8.11623 7.76758 7.7666C8.1172 7.41697 8.35569 6.97127 8.45215 6.48633C8.54848 6.00152 8.49873 5.49866 8.30957 5.04199C8.12033 4.58533 7.79969 4.19455 7.38867 3.91992C6.97763 3.64539 6.4943 3.49902 6 3.49902Z" fill="black" stroke="black"/>
</svg>
