<svg width="24" height="24" viewBox="0 0 24 24" fill="none" xmlns="http://www.w3.org/2000/svg">
<path d="M19.2171 7.40345C20.7791 8.96546 20.7789 11.4982 19.2171 13.0603L17.8029 14.4745L19.2171 15.8887L16.3887 18.7172L14.9745 17.3029L13.5602 18.7172C11.9981 20.2793 9.46549 20.2793 7.90339 18.7172L4.36786 22.2527L2.24654 20.1314L5.78207 16.5958C4.22025 15.0337 4.22007 12.501 5.78207 10.939L7.19628 9.52477L5.78207 8.11055L8.6105 5.28213L10.0247 6.69634L11.4389 5.28213C13.0009 3.72038 15.5337 3.7204 17.0958 5.28213L20.6313 1.74659L22.7526 3.86791L19.2171 7.40345ZM7.35373 11.0964C5.79172 12.6584 5.79191 15.1912 7.35373 16.7533L7.74595 17.1455C9.30805 18.7076 11.8407 18.7076 13.4028 17.1455L7.35373 11.0964ZM17.1351 6.97186C15.5731 5.41013 13.0403 5.41012 11.4783 6.97186L11.0073 7.44281L17.0564 13.4919L17.5274 13.0209C19.0892 11.4588 19.0894 8.9261 17.5274 7.36409L17.1351 6.97186Z" fill="#5566FF"/>
</svg>
