<svg width="24" height="24" viewBox="0 0 24 24" fill="none" xmlns="http://www.w3.org/2000/svg">
<path d="M14.6776 19.6274L13.2634 18.2132L12.5563 18.9203C10.9942 20.4824 8.46157 20.4824 6.89947 18.9203L3.36394 22.4558L1.24262 20.3345L4.77815 16.799C3.21605 15.2369 3.21605 12.7042 4.77815 11.1421L5.48526 10.435L4.07104 9.02082L5.48526 7.6066L16.0919 18.2132L14.6776 19.6274ZM6.3498 11.2996C4.78771 12.8617 4.78771 15.3943 6.3498 16.9564L6.74203 17.3487C8.30413 18.9108 10.8368 18.9108 12.3989 17.3487L6.3498 11.2996ZM18.9203 6.89949C20.4824 8.46159 20.4824 10.9943 18.9203 12.5563L17.5061 13.9706L18.9203 15.3848L17.5061 16.799L6.89947 6.19239L8.31368 4.77817L9.7279 6.19239L11.1421 4.77817C12.7042 3.21608 15.2369 3.21608 16.799 4.77817L20.3345 1.24264L22.4558 3.36396L18.9203 6.89949ZM16.8383 6.46791C15.2762 4.90581 12.7436 4.90581 11.1815 6.46791L10.7105 6.93886L16.7596 12.9879L17.2305 12.517C18.7926 10.9549 18.7926 8.42223 17.2305 6.86013L16.8383 6.46791Z" fill="#A7A7A7"/>
<path d="M2 13.9182L10.3652 11.6767L4.24144 5.55302L2 13.9182ZM6.77297 9.14521L7.3033 9.67554L12.4485 4.53033L11.9182 4L11.3879 3.46967L6.24264 8.61488L6.77297 9.14521Z" fill="#5566FF"/>
<path d="M19.8364 10.1682L17.4498 18.4931L11.4335 12.2638L19.8364 10.1682ZM14.9811 14.8574L15.5021 15.3969L10.521 20.2077L10 19.6682L9.47897 19.1287L14.4601 14.3179L14.9811 14.8574Z" fill="#5566FF"/>
</svg>
