<svg width="32" height="32" viewBox="0 0 32 32" fill="none" xmlns="http://www.w3.org/2000/svg">
<path d="M9.99999 26.586V2H7.99999V26.586L4.04999 22.636L2.63599 24.05L8.29299 29.707C8.48051 29.8945 8.73482 29.9998 8.99999 29.9998C9.26515 29.9998 9.51946 29.8945 9.70699 29.707L15.364 24.05L13.95 22.636L9.99999 26.586ZM29.364 7.95L23.707 2.293C23.5195 2.10553 23.2652 2.00021 23 2.00021C22.7348 2.00021 22.4805 2.10553 22.293 2.293L16.636 7.95L18.05 9.364L22 5.414V30H24V5.414L27.95 9.364L29.364 7.95Z" fill="black"/>
</svg>
